<svg width="42" height="44" viewBox="0 0 42 44" fill="none" xmlns="http://www.w3.org/2000/svg">
<g id="Group 1">
<path id="Vector" d="M1.93657 38.8129V39.9817C1.93657 40.2984 2.01991 40.5304 2.18657 40.6779C2.35324 40.8254 2.63574 40.8996 3.03407 40.9004C3.30028 40.8999 3.56519 40.8633 3.82157 40.7917C3.98282 40.7479 4.09032 40.7492 4.14657 40.7917C4.20282 40.8342 4.23032 40.9454 4.23032 41.1167V41.1742C4.2411 41.2927 4.21443 41.4116 4.15407 41.5142C4.0635 41.6031 3.95159 41.6673 3.82907 41.7004C3.5572 41.7818 3.27395 41.8185 2.99032 41.8092C2.28949 41.8092 1.76991 41.6609 1.43157 41.3642C1.09324 41.0675 0.924072 40.6054 0.924072 39.9779V38.8092C0.924072 38.1967 1.10032 37.7259 1.45282 37.3967C1.80532 37.0675 2.32199 36.9046 3.00282 36.9079C3.28301 36.9011 3.56223 36.9434 3.82782 37.0329C3.95327 37.0683 4.06767 37.135 4.16032 37.2267C4.22018 37.3267 4.24686 37.4431 4.23657 37.5592V37.6167C4.23657 37.7879 4.20657 37.8967 4.14532 37.9454C4.08407 37.9942 3.97407 37.9942 3.81407 37.9454C3.55082 37.8661 3.27775 37.824 3.00282 37.8204C2.62949 37.8204 2.35824 37.9009 2.18907 38.0617C2.02032 38.2217 1.93657 38.4729 1.93657 38.8129Z" fill="white"/>
<path id="Vector_2" d="M5.79039 39.3901V41.3164C5.80864 41.3733 5.81086 41.4341 5.79681 41.4921C5.78276 41.5502 5.75298 41.6032 5.71074 41.6455C5.6685 41.6877 5.61544 41.7175 5.55738 41.7315C5.49933 41.7456 5.43852 41.7434 5.38164 41.7251H5.24289C5.18601 41.7434 5.12521 41.7456 5.06715 41.7315C5.00909 41.7175 4.95603 41.6877 4.91379 41.6455C4.87156 41.6032 4.84178 41.5502 4.82772 41.4921C4.81367 41.4341 4.81589 41.3733 4.83414 41.3164V39.3164C4.83414 38.8839 4.96331 38.5543 5.22164 38.3276C5.47997 38.101 5.85706 37.9876 6.35289 37.9876H6.43289C6.48622 37.9816 6.54022 37.9876 6.59087 38.0054C6.64152 38.0231 6.68751 38.0521 6.72539 38.0901C6.78942 38.2005 6.81739 38.3281 6.80539 38.4551V38.5351C6.81942 38.6407 6.79357 38.7476 6.73289 38.8351C6.64221 38.8875 6.5358 38.9056 6.43289 38.8864H6.35289C6.19763 38.8701 6.04156 38.9086 5.91164 38.9951C5.86545 39.0491 5.83085 39.1121 5.80999 39.18C5.78913 39.248 5.78246 39.3195 5.79039 39.3901Z" fill="white"/>
<path id="Vector_3" d="M10.5429 39.5653C10.5429 39.5986 10.5379 39.6936 10.5279 39.8503C10.5262 39.9697 10.4819 40.0845 10.4029 40.174C10.2964 40.2371 10.1723 40.2643 10.0492 40.2515H8.19917V40.3603C8.19446 40.4444 8.2131 40.5281 8.25303 40.6022C8.29296 40.6763 8.35263 40.738 8.42542 40.7803C8.57625 40.8703 8.81959 40.9153 9.15542 40.9153C9.45265 40.9101 9.74865 40.8758 10.0392 40.8128C10.1954 40.779 10.2979 40.7865 10.3492 40.8353C10.4143 40.9317 10.4419 41.0487 10.4267 41.164V41.244C10.438 41.3587 10.4122 41.474 10.3529 41.5728C10.2645 41.6505 10.1556 41.7013 10.0392 41.719C9.74789 41.7891 9.44866 41.8207 9.14917 41.8128C8.49167 41.8128 8.00959 41.6853 7.70292 41.4303C7.39625 41.1753 7.24292 40.7703 7.24292 40.2153V39.6303C7.24292 38.5353 7.81 37.9878 8.94417 37.9878C10.0108 37.9878 10.5438 38.5136 10.5429 39.5653ZM8.19917 39.3678V39.4778H9.63792V39.3678C9.63792 38.9978 9.39709 38.8128 8.91542 38.8128C8.43375 38.8128 8.195 38.9978 8.19917 39.3678Z" fill="white"/>
<path id="Vector_4" d="M14.1717 39.2439V40.6376C14.1717 41.0364 14.0467 41.3326 13.7842 41.5251C13.5217 41.7176 13.1267 41.8126 12.5867 41.8126C12.0467 41.8126 11.6479 41.7201 11.3904 41.5326C11.1329 41.3451 11.0029 41.0539 11.0029 40.6576C11.0029 39.8976 11.4967 39.5181 12.4842 39.5189H13.2217V39.2414C13.2284 39.1728 13.2155 39.1038 13.1845 39.0423C13.1536 38.9808 13.1058 38.9293 13.0467 38.8939C12.8624 38.816 12.6625 38.7827 12.4629 38.7964C12.2505 38.7965 12.0384 38.8111 11.8279 38.8401C11.7193 38.8714 11.6028 38.8593 11.5029 38.8064C11.4467 38.7601 11.4192 38.6576 11.4192 38.4964V38.4676C11.4075 38.355 11.4344 38.2417 11.4954 38.1464C11.5846 38.0709 11.6962 38.027 11.8129 38.0214C12.0092 37.9984 12.2066 37.9859 12.4042 37.9839C13.0025 37.9839 13.4467 38.0839 13.7367 38.2839C14.0267 38.4839 14.1717 38.8039 14.1717 39.2439ZM13.2217 40.5864V40.2364H12.4717C12.125 40.2364 11.9521 40.3701 11.9529 40.6376C11.9515 40.6987 11.9655 40.7592 11.9937 40.8133C12.0219 40.8675 12.0634 40.9137 12.1142 40.9476C12.2594 41.0084 12.4174 41.0325 12.5742 41.0176C12.738 41.033 12.9029 41.004 13.0517 40.9339C13.106 40.894 13.1499 40.8416 13.1795 40.7811C13.2091 40.7206 13.2236 40.6537 13.2217 40.5864Z" fill="white"/>
<path id="Vector_5" d="M14.5579 38.6089V38.5789C14.5477 38.4716 14.5732 38.364 14.6304 38.2727C14.7089 38.1995 14.8088 38.1535 14.9154 38.1414L15.2154 38.0752L15.3029 37.4989C15.3045 37.3886 15.3458 37.2825 15.4192 37.2002C15.5154 37.1412 15.6282 37.1153 15.7404 37.1264H15.7842C15.8363 37.1108 15.8916 37.1096 15.9443 37.1229C15.997 37.1362 16.0452 37.1636 16.0836 37.202C16.1221 37.2404 16.1494 37.2886 16.1627 37.3413C16.176 37.394 16.1748 37.4493 16.1592 37.5014V38.0702H17.0029C17.0597 38.0529 17.1202 38.0513 17.1778 38.0657C17.2354 38.0801 17.288 38.1099 17.33 38.1519C17.372 38.1939 17.4018 38.2465 17.4162 38.3041C17.4305 38.3617 17.429 38.4221 17.4117 38.4789V38.5602C17.4302 38.6173 17.4327 38.6784 17.4188 38.7368C17.405 38.7952 17.3753 38.8487 17.3331 38.8914C17.291 38.9341 17.2378 38.9643 17.1796 38.9789C17.1214 38.9935 17.0603 38.9917 17.0029 38.9739H16.1704V40.4239C16.1704 40.7502 16.3229 40.9127 16.6304 40.9127C16.8019 40.9151 16.9731 40.9005 17.1417 40.8689C17.2477 40.8357 17.362 40.8396 17.4654 40.8802C17.5167 40.9164 17.5429 41.0127 17.5429 41.1689V41.2489C17.553 41.3739 17.5237 41.4989 17.4592 41.6064C17.3748 41.6947 17.2628 41.7516 17.1417 41.7677C16.9734 41.8009 16.8019 41.8156 16.6304 41.8114C15.6904 41.8114 15.2209 41.3464 15.2217 40.4164V38.9739H14.9292C14.8785 38.9894 14.8245 38.9907 14.7731 38.9779C14.7216 38.965 14.6747 38.9384 14.6372 38.9009C14.5997 38.8634 14.5731 38.8165 14.5602 38.765C14.5474 38.7136 14.5488 38.6596 14.5642 38.6089H14.5579Z" fill="white"/>
<path id="Vector_6" d="M21.2229 39.5653C21.2229 39.5986 21.2179 39.6936 21.2079 39.8503C21.2062 39.9697 21.1619 40.0845 21.0829 40.174C20.9763 40.2371 20.8523 40.2643 20.7291 40.2515H18.8779V40.3603C18.8732 40.4444 18.8918 40.5281 18.9317 40.6022C18.9717 40.6763 19.0313 40.738 19.1041 40.7803C19.255 40.8703 19.4983 40.9153 19.8341 40.9153C20.1314 40.91 20.4273 40.8757 20.7179 40.8128C20.8729 40.779 20.9766 40.7865 21.0279 40.8353C21.0925 40.9319 21.1196 41.0488 21.1041 41.164V41.244C21.1158 41.3586 21.0904 41.4738 21.0316 41.5728C20.9429 41.6501 20.8342 41.7008 20.7179 41.719C20.4262 41.7892 20.1265 41.8207 19.8266 41.8128C19.1708 41.8128 18.6891 41.6853 18.3816 41.4303C18.0741 41.1753 17.9208 40.7703 17.9216 40.2153V39.6303C17.9216 38.5353 18.4887 37.9878 19.6229 37.9878C20.6904 37.9878 21.2237 38.5136 21.2229 39.5653ZM18.8779 39.3678V39.4778H20.3166V39.3678C20.3166 38.9978 20.0758 38.8128 19.5941 38.8128C19.1125 38.8128 18.8737 38.9978 18.8779 39.3678Z" fill="white"/>
<path id="Vector_7" d="M22.8867 36.9801H23.9379C24.9754 36.9801 25.4937 37.4059 25.4929 38.2576C25.5027 38.4621 25.4545 38.6651 25.3538 38.8434C25.2532 39.0216 25.1043 39.1678 24.9242 39.2651C25.1448 39.3614 25.3353 39.5156 25.4754 39.7113C25.5912 39.9073 25.6481 40.1326 25.6392 40.3601C25.6392 41.2701 25.0975 41.7251 24.0142 41.7251H22.8892C22.5825 41.7251 22.36 41.6559 22.2217 41.5176C22.0833 41.3793 22.0142 41.1568 22.0142 40.8501V37.8501C22.0142 37.5434 22.0833 37.3209 22.2217 37.1826C22.36 37.0443 22.5817 36.9768 22.8867 36.9801ZM23.9379 37.8926H23.2079C23.1781 37.8887 23.1479 37.8916 23.1194 37.9013C23.091 37.911 23.0652 37.9271 23.044 37.9484C23.0229 37.9697 23.0069 37.9956 22.9974 38.0241C22.9879 38.0526 22.9851 38.0829 22.9892 38.1126V38.8788H23.9379C24.3129 38.8788 24.5004 38.7101 24.5004 38.3788C24.5004 38.0476 24.3129 37.8926 23.9379 37.8926ZM24.0117 39.7176H22.9892V40.5926C22.985 40.6223 22.9878 40.6526 22.9973 40.681C23.0068 40.7094 23.0228 40.7353 23.044 40.7565C23.0652 40.7777 23.0911 40.7937 23.1195 40.8032C23.148 40.8127 23.1782 40.8155 23.2079 40.8113H24.0117C24.4342 40.8113 24.6467 40.6338 24.6467 40.2788C24.6467 39.9051 24.4342 39.7176 24.0117 39.7176Z" fill="white"/>
<path id="Vector_8" d="M27.1655 38.4777L27.6467 40.6815C27.6585 40.7744 27.6982 40.8616 27.7605 40.9315C27.8282 40.9767 27.9094 40.9974 27.9905 40.9902C28.0216 40.9921 28.0527 40.9872 28.0816 40.9757C28.1106 40.9643 28.1366 40.9466 28.158 40.924C28.2093 40.852 28.2443 40.7697 28.2605 40.6827L28.7417 38.479C28.7596 38.3582 28.8147 38.2459 28.8992 38.1577C29.0002 38.0941 29.1192 38.0656 29.238 38.0765H29.3992C29.5642 38.0765 29.668 38.104 29.7092 38.1577C29.7505 38.2115 29.7542 38.3177 29.7205 38.479L28.9705 41.729C28.858 42.2398 28.6717 42.6269 28.4117 42.8902C28.1355 43.1613 27.7773 43.3332 27.393 43.379C27.2771 43.4095 27.1544 43.402 27.043 43.3577C26.9612 43.2728 26.912 43.1617 26.9042 43.044L26.8967 43.0065C26.8658 42.9596 26.8487 42.9048 26.8476 42.8486C26.8464 42.7924 26.8612 42.737 26.8903 42.6889C26.9193 42.6407 26.9614 42.6018 27.0117 42.5766C27.0619 42.5514 27.1183 42.541 27.1742 42.5465C27.3684 42.516 27.5486 42.427 27.6909 42.2915C27.8331 42.1559 27.9307 41.9802 27.9705 41.7877C27.8728 41.8137 27.7714 41.8235 27.6705 41.8165C27.3892 41.8165 27.1805 41.7427 27.0455 41.594C26.9105 41.4452 26.7955 41.179 26.713 40.7952L26.1805 38.4815C26.1467 38.3202 26.1505 38.214 26.1917 38.1602C26.233 38.1065 26.3367 38.079 26.5017 38.079H26.6617C26.7809 38.0681 26.9004 38.0966 27.0017 38.1602C27.0874 38.2469 27.1446 38.3577 27.1655 38.4777Z" fill="white"/>
<path id="Vector_9" d="M30.0118 38.6089V38.5789C30.0001 38.5258 30.0005 38.4708 30.0131 38.4179C30.0258 38.365 30.0502 38.3157 30.0846 38.2736C30.119 38.2315 30.1625 38.1977 30.2118 38.1748C30.2611 38.152 30.3149 38.1405 30.3693 38.1414L30.6693 38.0752L30.7568 37.4989C30.7589 37.3887 30.8001 37.2828 30.873 37.2002C30.9693 37.1414 31.082 37.1155 31.1943 37.1264H31.238C31.2901 37.1108 31.3455 37.1096 31.3982 37.1229C31.4509 37.1362 31.499 37.1636 31.5375 37.202C31.5759 37.2404 31.6032 37.2886 31.6165 37.3413C31.6298 37.394 31.6286 37.4493 31.613 37.5014V38.0702H32.4455C32.5024 38.0524 32.563 38.0505 32.6208 38.0648C32.6787 38.079 32.7315 38.1088 32.7736 38.1509C32.8157 38.193 32.8455 38.2458 32.8597 38.3036C32.8739 38.3615 32.8721 38.4221 32.8543 38.4789V38.5602C32.8721 38.617 32.8739 38.6776 32.8597 38.7355C32.8455 38.7933 32.8157 38.8461 32.7736 38.8882C32.7315 38.9304 32.6787 38.9601 32.6208 38.9744C32.563 38.9886 32.5024 38.9867 32.4455 38.9689H31.613V40.4239C31.613 40.7506 31.7664 40.9135 32.073 40.9127C32.2445 40.9152 32.4158 40.9005 32.5843 40.8689C32.6908 40.8358 32.8054 40.8397 32.9093 40.8802C32.9593 40.9164 32.9855 41.0127 32.9855 41.1689V41.2489C32.9956 41.3739 32.9663 41.4989 32.9018 41.6064C32.8174 41.6947 32.7054 41.7516 32.5843 41.7677C32.416 41.8009 32.2445 41.8156 32.073 41.8114C31.133 41.8114 30.6635 41.3464 30.6643 40.4164V38.9739H30.378C30.3274 38.9889 30.2736 38.99 30.2224 38.9769C30.1711 38.9639 30.1244 38.9373 30.087 38.9C30.0496 38.8626 30.0231 38.8158 30.01 38.7646C29.997 38.7134 29.998 38.6596 30.013 38.6089H30.0118Z" fill="white"/>
<path id="Vector_10" d="M36.6767 39.5653C36.6767 39.5986 36.6717 39.6936 36.6617 39.8503C36.66 39.9697 36.6157 40.0845 36.5367 40.174C36.4301 40.2371 36.3061 40.2643 36.1829 40.2515H34.3329V40.3603C34.3282 40.4444 34.3469 40.5281 34.3868 40.6022C34.4267 40.6763 34.4864 40.738 34.5592 40.7803C34.7109 40.8703 34.9542 40.9153 35.2892 40.9153C35.5864 40.91 35.8824 40.8757 36.1729 40.8128C36.3292 40.779 36.4317 40.7865 36.4829 40.8353C36.5481 40.9317 36.5756 41.0487 36.5604 41.164V41.244C36.5718 41.3587 36.5459 41.474 36.4867 41.5728C36.3982 41.6505 36.2893 41.7013 36.1729 41.719C35.8817 41.7891 35.5824 41.8207 35.2829 41.8128C34.6254 41.8128 34.1434 41.6853 33.8367 41.4303C33.53 41.1753 33.3771 40.7703 33.3779 40.2153V39.6303C33.3779 38.5353 33.945 37.9878 35.0792 37.9878C36.145 37.9878 36.6775 38.5136 36.6767 39.5653ZM34.3329 39.3678V39.4778H35.7717V39.3678C35.7717 38.9978 35.5308 38.8128 35.0492 38.8128C34.5675 38.8128 34.3288 38.9978 34.3329 39.3678Z" fill="white"/>
<path id="Vector_11" d="M37.2091 41.2368V41.1568C37.2091 40.9818 37.2378 40.8693 37.2941 40.8205C37.3503 40.7718 37.4553 40.7693 37.6116 40.813C37.9351 40.8992 38.2693 40.9387 38.6041 40.9305C38.7537 40.9382 38.9037 40.9235 39.0491 40.8868C39.0845 40.8757 39.1152 40.853 39.1363 40.8224C39.1573 40.7918 39.1676 40.7551 39.1653 40.718C39.1651 40.6867 39.157 40.6559 39.1417 40.6286C39.1264 40.6013 39.1044 40.5783 39.0778 40.5618C38.9587 40.4905 38.8332 40.4306 38.7028 40.383L38.0228 40.098C37.797 40.0147 37.5961 39.8754 37.4391 39.693C37.3145 39.5092 37.2531 39.2898 37.2641 39.068C37.2641 38.698 37.382 38.4268 37.6178 38.2543C37.8536 38.0818 38.232 37.9951 38.7528 37.9943C39.0133 37.9921 39.2731 38.0215 39.5266 38.0818C39.6474 38.0985 39.7605 38.1507 39.8516 38.2318C39.9133 38.331 39.9405 38.4479 39.9291 38.5643V38.6368C39.9291 38.803 39.9003 38.908 39.8453 38.9543C39.7903 39.0005 39.6803 39.0043 39.5203 38.9655C39.2644 38.905 39.0021 38.8756 38.7391 38.878C38.5964 38.8707 38.4535 38.8855 38.3153 38.9218C38.2872 38.9303 38.2619 38.9462 38.2421 38.9679C38.2222 38.9896 38.2086 39.0162 38.2026 39.045C38.1966 39.0737 38.1984 39.1036 38.2079 39.1314C38.2174 39.1592 38.2342 39.1839 38.2566 39.203C38.3315 39.2545 38.4125 39.2965 38.4978 39.328L39.2566 39.628C39.5054 39.7089 39.7284 39.8542 39.9028 40.0493C40.0423 40.2435 40.1119 40.4792 40.1003 40.718C40.1003 41.1013 39.9753 41.3809 39.7253 41.5568C39.4753 41.7318 39.0778 41.8193 38.5278 41.8193C38.2189 41.8264 37.9102 41.7949 37.6091 41.7255C37.4884 41.7083 37.3755 41.6561 37.2841 41.5755C37.2219 41.4742 37.1954 41.3549 37.2091 41.2368Z" fill="white"/>
<path id="Vector_12" d="M34.5516 22.8452L34.5453 22.8339L31.4078 17.4127L31.3966 17.3952L31.1953 17.0452C31.0281 16.7569 30.7534 16.5468 30.4314 16.4608C30.1094 16.3748 29.7665 16.42 29.4778 16.5864L27.6478 17.6402C27.4824 17.7224 27.3221 17.8147 27.1678 17.9164L27.1916 17.9052L27.1566 17.9277C26.881 18.1099 26.6243 18.3193 26.3903 18.5527C25.6994 19.2412 25.2343 20.1236 25.0566 21.0827C25.0453 21.1714 25.0316 21.2589 25.0166 21.3452C24.8384 22.3132 24.368 23.2034 23.6686 23.896C22.9693 24.5886 22.0745 25.0504 21.1048 25.2192C20.1351 25.388 19.137 25.2557 18.2447 24.8401C17.3525 24.4246 16.6089 23.7457 16.1141 22.8948C15.6193 22.0439 15.397 21.0619 15.4772 20.0809C15.5573 19.0999 15.936 18.1669 16.5623 17.4076C17.1886 16.6483 18.0325 16.0991 18.9804 15.8338C19.9282 15.5686 20.9346 15.6 21.8641 15.9239C21.9528 15.9614 22.0416 15.9952 22.1328 16.0277C22.8436 16.2762 23.6026 16.355 24.3493 16.2578C25.0959 16.1606 25.8094 15.89 26.4328 15.4677L28.1628 14.4677L28.3378 14.3664C28.399 14.3241 28.4563 14.2764 28.5091 14.2239C28.6928 14.0413 28.8141 13.8052 28.8556 13.5495C28.8971 13.2939 28.8568 13.0316 28.7403 12.8002L28.6691 12.6752L28.6066 12.5664L28.4741 12.3364L25.3491 6.94642L22.4328 1.90892L22.3391 1.74767C22.2427 1.59424 22.13 1.45174 22.0028 1.32267C21.5397 0.861474 20.9127 0.602539 20.2591 0.602539C19.6055 0.602539 18.9785 0.861474 18.5153 1.32267C18.4187 1.41952 18.3301 1.52403 18.2503 1.63517C18.2278 1.67017 18.2053 1.70642 18.1841 1.74267L18.0653 1.94892L18.0291 2.01142L3.03407 27.9102C2.80191 28.3071 2.6867 28.7616 2.70174 29.2212C2.71678 29.6808 2.86146 30.1268 3.11907 30.5077L3.13782 30.5352C3.36256 30.8689 3.66627 31.1418 4.02196 31.3298C4.37764 31.5178 4.77427 31.615 5.17657 31.6127H35.3516C35.7835 31.613 36.208 31.4998 36.5823 31.2842C36.9566 31.0687 37.2677 30.7585 37.4842 30.3848C37.7008 30.0111 37.8153 29.587 37.8161 29.155C37.8169 28.7231 37.7042 28.2985 37.4891 27.9239L34.5516 22.8452Z" fill="white"/>
<path id="Vector_13" d="M36.2528 6.43901C35.2996 6.4347 34.3666 6.71393 33.5725 7.2412C32.7784 7.76847 32.159 8.51997 31.7931 9.40016C31.4271 10.2803 31.3312 11.2495 31.5174 12.1843C31.7037 13.1192 32.1637 13.9775 32.8391 14.6503C33.3979 15.2133 34.087 15.6295 34.8454 15.8622C35.6037 16.0948 36.4078 16.1366 37.1862 15.9838C37.9646 15.831 38.6932 15.4884 39.3073 14.9863C39.9214 14.4843 40.4021 13.8383 40.7066 13.1059C41.0111 12.3734 41.1301 11.5771 41.0529 10.7876C40.9757 9.99818 40.7047 9.23999 40.2641 8.5804C39.8234 7.92082 39.2267 7.38024 38.527 7.00668C37.8272 6.63311 37.046 6.43812 36.2528 6.43901Z" fill="white"/>
</g>
</svg>
